<svg width="24" height="24" viewBox="0 0 24 24" fill="none" xmlns="http://www.w3.org/2000/svg">
<g clip-path="url(#clip0_389_4210)">
<mask id="mask0_389_4210" style="mask-type:luminance" maskUnits="userSpaceOnUse" x="0" y="0" width="24" height="24">
<path d="M0 0H24V24H0V0Z" fill="white"/>
</mask>
<g mask="url(#mask0_389_4210)">
<path fill-rule="evenodd" clip-rule="evenodd" d="M8.27058 5.25003H9.20208L9.86208 4.59003L11.4671 2.98503C11.5367 2.91519 11.6195 2.85977 11.7106 2.82196C11.8017 2.78415 11.8994 2.76469 11.9981 2.76469C12.0967 2.76469 12.1944 2.78415 12.2855 2.82196C12.3766 2.85977 12.4594 2.91519 12.5291 2.98503L14.1341 4.59003L14.7941 5.25003H17.9981C18.197 5.25003 18.3878 5.32905 18.5284 5.4697C18.6691 5.61035 18.7481 5.80112 18.7481 6.00003V9.20403L19.4081 9.86403L21.0131 11.469C21.0829 11.5387 21.1383 11.6215 21.1761 11.7126C21.214 11.8037 21.2334 11.9014 21.2334 12C21.2334 12.0987 21.214 12.1964 21.1761 12.2875C21.1383 12.3786 21.0829 12.4614 21.0131 12.531L19.4081 14.136L18.7481 14.796V18C18.7481 18.1989 18.6691 18.3897 18.5284 18.5304C18.3878 18.671 18.197 18.75 17.9981 18.75H14.7941L14.1341 19.41L12.5291 21.015C12.4594 21.0849 12.3766 21.1403 12.2855 21.1781C12.1944 21.2159 12.0967 21.2354 11.9981 21.2354C11.8994 21.2354 11.8017 21.2159 11.7106 21.1781C11.6195 21.1403 11.5367 21.0849 11.4671 21.015L9.86208 19.41L9.20208 18.75H5.99808C5.79917 18.75 5.6084 18.671 5.46775 18.5304C5.3271 18.3897 5.24808 18.1989 5.24808 18V14.796L4.58808 14.136L2.98308 12.531C2.91323 12.4614 2.85782 12.3786 2.82001 12.2875C2.7822 12.1964 2.76274 12.0987 2.76274 12C2.76274 11.9014 2.7822 11.8037 2.82001 11.7126C2.85782 11.6215 2.91323 11.5387 2.98308 11.469L4.58808 9.86403L5.24808 9.20403V6.00003C5.24808 5.80112 5.3271 5.61035 5.46775 5.4697C5.6084 5.32905 5.79917 5.25003 5.99808 5.25003H8.27058ZM14.1206 1.39353C13.842 1.1146 13.5111 0.893326 13.1469 0.742353C12.7827 0.59138 12.3923 0.513672 11.9981 0.513672C11.6038 0.513672 11.2135 0.59138 10.8493 0.742353C10.4851 0.893326 10.1542 1.1146 9.87558 1.39353L8.27208 3.00003H5.99808C5.20243 3.00003 4.43937 3.3161 3.87676 3.87871C3.31415 4.44132 2.99808 5.20438 2.99808 6.00003V8.27253L1.39158 9.87753C1.11265 10.1562 0.891372 10.487 0.7404 10.8512C0.589427 11.2154 0.511719 11.6058 0.511719 12C0.511719 12.3943 0.589427 12.7847 0.7404 13.1489C0.891372 13.513 1.11265 13.8439 1.39158 14.1225L2.99808 15.726V18C2.99808 18.7957 3.31415 19.5587 3.87676 20.1214C4.43937 20.684 5.20243 21 5.99808 21H8.27058L9.87558 22.6065C10.1542 22.8855 10.4851 23.1067 10.8493 23.2577C11.2135 23.4087 11.6038 23.4864 11.9981 23.4864C12.3923 23.4864 12.7827 23.4087 13.1469 23.2577C13.5111 23.1067 13.842 22.8855 14.1206 22.6065L15.7241 21H17.9981C18.7937 21 19.5568 20.684 20.1194 20.1214C20.682 19.5587 20.9981 18.7957 20.9981 18V15.7275L22.6046 14.1225C22.8835 13.8439 23.1048 13.513 23.2558 13.1489C23.4067 12.7847 23.4844 12.3943 23.4844 12C23.4844 11.6058 23.4067 11.2154 23.2558 10.8512C23.1048 10.487 22.8835 10.1562 22.6046 9.87753L20.9981 8.27403V6.00003C20.9981 5.20438 20.682 4.44132 20.1194 3.87871C19.5568 3.3161 18.7937 3.00003 17.9981 3.00003H15.7256L14.1206 1.39353ZM16.6481 9.67503C16.7367 9.55684 16.8012 9.42235 16.8379 9.27924C16.8745 9.13612 16.8827 8.98718 16.8618 8.84093C16.8409 8.69468 16.7914 8.55398 16.7161 8.42685C16.6408 8.29973 16.5413 8.18867 16.4231 8.10003C16.3049 8.01139 16.1704 7.94689 16.0273 7.91023C15.8842 7.87356 15.7352 7.86545 15.589 7.88634C15.4427 7.90723 15.302 7.95673 15.1749 8.032C15.0478 8.10727 14.9367 8.20684 14.8481 8.32503L11.1266 13.287L9.04308 11.205C8.82982 11.0063 8.54775 10.8981 8.25629 10.9033C7.96484 10.9084 7.68677 11.0265 7.48065 11.2326C7.27453 11.4387 7.15646 11.7168 7.15132 12.0082C7.14617 12.2997 7.25436 12.5818 7.45308 12.795L10.4531 15.795C10.567 15.9089 10.7041 15.9971 10.855 16.0534C11.006 16.1098 11.1672 16.133 11.328 16.1217C11.4887 16.1103 11.6451 16.0645 11.7865 15.9875C11.928 15.9104 12.0513 15.8039 12.1481 15.675L16.6481 9.67503Z" fill="black"/>
</g>
</g>
<defs>
<clipPath id="clip0_389_4210">
<rect width="24" height="24" fill="white"/>
</clipPath>
</defs>
</svg>
